<?xml version="1.0" encoding="UTF-8" standalone="no"?>
<!DOCTYPE svg PUBLIC "-//W3C//DTD SVG 1.1//EN"
 "http://www.w3.org/Graphics/SVG/1.1/DTD/svg11.dtd">
<!-- Generated by graphviz version 2.38.0 (20140413.2041)
 -->
<!-- Title: g Pages: 1 -->
<svg width="89pt" height="260pt"
 viewBox="0.00 0.00 89.00 260.00" xmlns="http://www.w3.org/2000/svg" xmlns:xlink="http://www.w3.org/1999/xlink">
<g id="graph0" class="graph" transform="scale(1 1) rotate(0) translate(4 256)">
<title>g</title>
<polygon fill="white" stroke="none" points="-4,4 -4,-256 85,-256 85,4 -4,4"/>
<!-- a -->
<g id="node1" class="node"><title>a</title>
<ellipse fill="none" stroke="black" cx="54" cy="-234" rx="27" ry="18"/>
<text text-anchor="middle" x="54" y="-230.3" font-family="Times New Roman,serif" font-size="14.00">a</text>
</g>
<!-- b -->
<g id="node2" class="node"><title>b</title>
<ellipse fill="none" stroke="black" cx="27" cy="-162" rx="27" ry="18"/>
<text text-anchor="middle" x="27" y="-158.3" font-family="Times New Roman,serif" font-size="14.00">b</text>
</g>
<!-- a&#45;&gt;b -->
<g id="edge1" class="edge"><title>a&#45;&gt;b</title>
<path fill="none" stroke="black" d="M47.6014,-216.411C44.4864,-208.335 40.6663,-198.431 37.1654,-189.355"/>
<polygon fill="black" stroke="black" points="40.4045,-188.027 33.5403,-179.956 33.8735,-190.546 40.4045,-188.027"/>
</g>
<!-- c -->
<g id="node3" class="node"><title>c</title>
<ellipse fill="none" stroke="black" cx="27" cy="-90" rx="27" ry="18"/>
<text text-anchor="middle" x="27" y="-86.3" font-family="Times New Roman,serif" font-size="14.00">c</text>
</g>
<!-- b&#45;&gt;c -->
<g id="edge2" class="edge"><title>b&#45;&gt;c</title>
<path fill="none" stroke="black" d="M27,-143.697C27,-135.983 27,-126.712 27,-118.112"/>
<polygon fill="black" stroke="black" points="30.5001,-118.104 27,-108.104 23.5001,-118.104 30.5001,-118.104"/>
</g>
<!-- d -->
<g id="node4" class="node"><title>d</title>
<ellipse fill="none" stroke="black" cx="54" cy="-18" rx="27" ry="18"/>
<text text-anchor="middle" x="54" y="-14.3" font-family="Times New Roman,serif" font-size="14.00">d</text>
</g>
<!-- c&#45;&gt;d -->
<g id="edge3" class="edge"><title>c&#45;&gt;d</title>
<path fill="none" stroke="black" d="M33.3986,-72.411C36.5136,-64.3352 40.3337,-54.4312 43.8346,-45.3547"/>
<polygon fill="black" stroke="black" points="47.1265,-46.5458 47.4597,-35.9562 40.5955,-44.0267 47.1265,-46.5458"/>
</g>
<!-- d&#45;&gt;a -->
<g id="edge4" class="edge"><title>d&#45;&gt;a</title>
<path fill="none" stroke="black" d="M57.6538,-36.0925C59.6758,-46.4315 61.9808,-59.9098 63,-72 67.0322,-119.83 67.0322,-132.17 63,-180 62.2834,-188.501 60.9311,-197.688 59.4884,-205.988"/>
<polygon fill="black" stroke="black" points="56.0309,-205.438 57.6538,-215.908 62.9142,-206.711 56.0309,-205.438"/>
</g>
</g>
</svg>
