<?xml version="1.0" encoding="UTF-8" standalone="no"?>
<!DOCTYPE svg PUBLIC "-//W3C//DTD SVG 1.1//EN"
 "http://www.w3.org/Graphics/SVG/1.1/DTD/svg11.dtd">
<!-- Generated by graphviz version 2.38.0 (20140413.2041)
 -->
<!-- Title: G Pages: 1 -->
<svg width="382pt" height="260pt"
 viewBox="0.00 0.00 382.39 260.00" xmlns="http://www.w3.org/2000/svg" xmlns:xlink="http://www.w3.org/1999/xlink">
<g id="graph0" class="graph" transform="scale(1 1) rotate(0) translate(4 256)">
<title>G</title>
<polygon fill="white" stroke="none" points="-4,4 -4,-256 378.391,-256 378.391,4 -4,4"/>
<!-- main -->
<g id="node1" class="node"><title>main</title>
<ellipse fill="none" stroke="black" cx="156.595" cy="-234" rx="27.8951" ry="18"/>
<text text-anchor="middle" x="156.595" y="-230.3" font-family="Times New Roman,serif" font-size="14.00">main</text>
</g>
<!-- parse -->
<g id="node2" class="node"><title>parse</title>
<ellipse fill="none" stroke="black" cx="113.595" cy="-162" rx="30.5947" ry="18"/>
<text text-anchor="middle" x="113.595" y="-158.3" font-family="Times New Roman,serif" font-size="14.00">parse</text>
</g>
<!-- main&#45;&gt;parse -->
<g id="edge1" class="edge"><title>main&#45;&gt;parse</title>
<path fill="none" stroke="black" d="M146.838,-217.116C141.526,-208.469 134.834,-197.575 128.85,-187.833"/>
<polygon fill="black" stroke="black" points="131.829,-185.996 123.612,-179.307 125.864,-189.66 131.829,-185.996"/>
</g>
<!-- init -->
<g id="node4" class="node"><title>init</title>
<ellipse fill="none" stroke="black" cx="54.5952" cy="-90" rx="27" ry="18"/>
<text text-anchor="middle" x="54.5952" y="-86.3" font-family="Times New Roman,serif" font-size="14.00">init</text>
</g>
<!-- main&#45;&gt;init -->
<g id="edge3" class="edge"><title>main&#45;&gt;init</title>
<path fill="none" stroke="black" d="M133.207,-224.103C114.195,-215.647 88.2112,-201.073 73.5952,-180 61.0415,-161.901 56.526,-137.12 55.0168,-118.302"/>
<polygon fill="black" stroke="black" points="58.5088,-118.06 54.4466,-108.275 51.5201,-118.458 58.5088,-118.06"/>
</g>
<!-- cleanup -->
<g id="node5" class="node"><title>cleanup</title>
<ellipse fill="none" stroke="black" cx="200.595" cy="-162" rx="38.1938" ry="18"/>
<text text-anchor="middle" x="200.595" y="-158.3" font-family="Times New Roman,serif" font-size="14.00">cleanup</text>
</g>
<!-- main&#45;&gt;cleanup -->
<g id="edge4" class="edge"><title>main&#45;&gt;cleanup</title>
<path fill="none" stroke="black" d="M166.579,-217.116C171.883,-208.679 178.53,-198.104 184.537,-188.547"/>
<polygon fill="black" stroke="black" points="187.678,-190.126 190.037,-179.797 181.752,-186.401 187.678,-190.126"/>
</g>
<!-- printf -->
<g id="node7" class="node"><title>printf</title>
<ellipse fill="none" stroke="black" cx="263.595" cy="-18" rx="30.5947" ry="18"/>
<text text-anchor="middle" x="263.595" y="-14.3" font-family="Times New Roman,serif" font-size="14.00">printf</text>
</g>
<!-- main&#45;&gt;printf -->
<g id="edge8" class="edge"><title>main&#45;&gt;printf</title>
<path fill="none" stroke="black" d="M181.59,-225.593C202.921,-217.867 232.471,-203.532 247.595,-180 273.769,-139.275 271.953,-80.4128 267.971,-46.2928"/>
<polygon fill="black" stroke="black" points="271.409,-45.5964 266.635,-36.1386 264.469,-46.5098 271.409,-45.5964"/>
</g>
<!-- execute -->
<g id="node3" class="node"><title>execute</title>
<ellipse fill="none" stroke="black" cx="153.595" cy="-90" rx="38.1938" ry="18"/>
<text text-anchor="middle" x="153.595" y="-86.3" font-family="Times New Roman,serif" font-size="14.00">execute</text>
</g>
<!-- parse&#45;&gt;execute -->
<g id="edge2" class="edge"><title>parse&#45;&gt;execute</title>
<path fill="none" stroke="black" d="M122.872,-144.765C127.65,-136.404 133.586,-126.016 138.963,-116.606"/>
<polygon fill="black" stroke="black" points="142.168,-118.052 144.09,-107.633 136.09,-114.579 142.168,-118.052"/>
</g>
<!-- make_string -->
<g id="node6" class="node"><title>make_string</title>
<ellipse fill="none" stroke="black" cx="54.5952" cy="-18" rx="54.6905" ry="18"/>
<text text-anchor="middle" x="54.5952" y="-14.3" font-family="Times New Roman,serif" font-size="14.00">make_string</text>
</g>
<!-- execute&#45;&gt;make_string -->
<g id="edge5" class="edge"><title>execute&#45;&gt;make_string</title>
<path fill="none" stroke="black" d="M133.082,-74.496C119.224,-64.6973 100.686,-51.5893 85.1058,-40.5732"/>
<polygon fill="black" stroke="black" points="86.9888,-37.6181 76.8031,-34.7026 82.9475,-43.3337 86.9888,-37.6181"/>
</g>
<!-- execute&#45;&gt;printf -->
<g id="edge6" class="edge"><title>execute&#45;&gt;printf</title>
<path fill="none" stroke="black" d="M175.591,-75.0027C192.617,-64.1679 216.339,-49.0719 234.865,-37.283"/>
<polygon fill="black" stroke="black" points="236.932,-40.1162 243.489,-31.7945 233.174,-34.2105 236.932,-40.1162"/>
</g>
<!-- compare -->
<g id="node8" class="node"><title>compare</title>
<ellipse fill="none" stroke="black" cx="169.595" cy="-18" rx="42.4939" ry="18"/>
<text text-anchor="middle" x="169.595" y="-14.3" font-family="Times New Roman,serif" font-size="14.00">compare</text>
</g>
<!-- execute&#45;&gt;compare -->
<g id="edge9" class="edge"><title>execute&#45;&gt;compare</title>
<path fill="none" stroke="black" d="M157.468,-72.055C159.25,-64.2609 161.407,-54.8219 163.406,-46.0789"/>
<polygon fill="black" stroke="black" points="166.83,-46.8038 165.647,-36.2753 160.006,-45.244 166.83,-46.8038"/>
</g>
<!-- init&#45;&gt;make_string -->
<g id="edge7" class="edge"><title>init&#45;&gt;make_string</title>
<path fill="none" stroke="black" d="M54.5952,-71.6966C54.5952,-63.9827 54.5952,-54.7125 54.5952,-46.1124"/>
<polygon fill="black" stroke="black" points="58.0953,-46.1043 54.5952,-36.1043 51.0953,-46.1044 58.0953,-46.1043"/>
</g>
<!-- datatables -->
<g id="node9" class="node"><title>datatables</title>
<ellipse fill="none" stroke="black" cx="327.595" cy="-234" rx="46.5926" ry="18"/>
<text text-anchor="middle" x="327.595" y="-230.3" font-family="Times New Roman,serif" font-size="14.00">datatables</text>
</g>
<!-- jquery -->
<g id="node10" class="node"><title>jquery</title>
<ellipse fill="none" stroke="black" cx="327.595" cy="-162" rx="33.2948" ry="18"/>
<text text-anchor="middle" x="327.595" y="-158.3" font-family="Times New Roman,serif" font-size="14.00">jquery</text>
</g>
<!-- datatables&#45;&gt;jquery -->
<g id="edge10" class="edge"><title>datatables&#45;&gt;jquery</title>
<path fill="none" stroke="black" d="M327.595,-215.697C327.595,-207.983 327.595,-198.712 327.595,-190.112"/>
<polygon fill="black" stroke="black" points="331.095,-190.104 327.595,-180.104 324.095,-190.104 331.095,-190.104"/>
</g>
</g>
</svg>
